<svg width="100" height="100" viewBox="0 0 100 100" fill="none" xmlns="http://www.w3.org/2000/svg">
<path d="M94.7304 29.3208C94.7297 27.6439 94.371 26.1621 93.6457 24.8903C92.9333 23.6398 91.8664 22.5916 90.4353 21.7629C78.6222 14.9514 66.7977 8.16076 54.9885 1.34236C51.8048 -0.495653 48.7179 -0.428645 45.5578 1.43575C40.8559 4.20873 17.3148 17.6959 10.2999 21.759C7.41097 23.4314 6.00521 25.9909 6.00451 29.3177C6 43.0159 6.00451 56.7138 6 70.4125C6.00069 72.0526 6.34406 73.5055 7.0374 74.7582C7.75017 76.0466 8.83201 77.1236 10.2961 77.9711C17.3114 82.0342 40.8555 95.5203 45.5565 98.294C48.7179 100.159 51.8048 100.226 54.9895 98.3874C66.7991 91.5687 78.6243 84.7784 90.4391 77.9669C91.9032 77.1198 92.985 76.0421 93.6978 74.7547C94.3901 73.5021 94.7342 72.0491 94.7349 70.4086C94.7349 70.4086 94.7349 43.0194 94.7304 29.3208" fill="#5C8DBC"/>
<path d="M50.5032 49.7317L7.03735 74.7584C7.75013 76.0468 8.83197 77.1237 10.2961 77.9712C17.3113 82.0344 40.8555 95.5205 45.5565 98.2942C48.7179 100.16 51.8048 100.226 54.9895 98.3876C66.7991 91.5688 78.6244 84.7785 90.4392 77.9671C91.9033 77.1199 92.9851 76.0423 93.6979 74.7549L50.5032 49.7317" fill="#1A4674"/>
<path d="M37.6289 57.1448C40.1582 61.5603 44.9129 64.5384 50.3672 64.5384C55.8552 64.5384 60.637 61.5224 63.1534 57.0597L50.503 49.7317L37.6289 57.1448" fill="#1A4674"/>
<path d="M94.7303 29.3211C94.7296 27.6442 94.371 26.1624 93.6457 24.8906L50.5032 49.7319L93.6978 74.7551C94.3901 73.5025 94.7342 72.0495 94.7349 70.409C94.7349 70.409 94.7349 43.0197 94.7303 29.3211" fill="#1B598E"/>
<path d="M92.3552 51.5204H88.9799V54.8964H85.6038V51.5204H82.2288V48.1454H85.6038V44.77H88.9799V48.1454H92.3552V51.5204ZM80.0388 51.5204H76.6638V54.8964H73.2884V51.5204H69.9131V48.1454H73.2884V44.77H76.6638V48.1454H80.0388V51.5204Z" fill="white"/>
<path d="M63.1537 57.0599C60.6373 61.5227 55.8555 64.5387 50.3675 64.5387C44.9131 64.5387 40.1584 61.5605 37.6291 57.145C36.3586 54.9293 35.6913 52.4192 35.6939 49.8651C35.6939 41.7614 42.2637 35.192 50.3675 35.192C55.7867 35.192 60.5164 38.133 63.0582 42.5034L75.8837 35.118C70.7859 26.3182 61.2685 20.3979 50.3675 20.3979C34.0927 20.3979 20.8999 33.5911 20.8999 49.8651C20.8999 55.2042 22.3202 60.211 24.8026 64.5296C29.8875 73.376 39.4321 79.3327 50.3675 79.3327C61.323 79.3327 70.8824 73.352 75.96 64.4797L63.1537 57.0599Z" fill="white"/>
</svg>
